<svg width="25" height="24" viewBox="0 0 25 24" fill="none" xmlns="http://www.w3.org/2000/svg">
<path d="M17.5 10.9999H9.90999L13.21 7.70994C13.3983 7.52164 13.5041 7.26624 13.5041 6.99994C13.5041 6.73364 13.3983 6.47825 13.21 6.28994C13.0217 6.10164 12.7663 5.99585 12.5 5.99585C12.2337 5.99585 11.9783 6.10164 11.79 6.28994L6.78999 11.2899C6.69895 11.385 6.62758 11.4972 6.57999 11.6199C6.47997 11.8634 6.47997 12.1365 6.57999 12.3799C6.62758 12.5027 6.69895 12.6148 6.78999 12.7099L11.79 17.7099C11.883 17.8037 11.9936 17.8781 12.1154 17.9288C12.2373 17.9796 12.368 18.0057 12.5 18.0057C12.632 18.0057 12.7627 17.9796 12.8846 17.9288C13.0064 17.8781 13.117 17.8037 13.21 17.7099C13.3037 17.617 13.3781 17.5064 13.4289 17.3845C13.4796 17.2627 13.5058 17.132 13.5058 16.9999C13.5058 16.8679 13.4796 16.7372 13.4289 16.6154C13.3781 16.4935 13.3037 16.3829 13.21 16.2899L9.90999 12.9999H17.5C17.7652 12.9999 18.0196 12.8946 18.2071 12.707C18.3946 12.5195 18.5 12.2652 18.5 11.9999C18.5 11.7347 18.3946 11.4804 18.2071 11.2928C18.0196 11.1053 17.7652 10.9999 17.5 10.9999Z" fill="white"/>
</svg>
