<svg width="24" height="24" viewBox="0 0 25 24" fill="none" xmlns="http://www.w3.org/2000/svg">
<path d="M12.7273 2C10.7495 2 8.81609 2.58649 7.1716 3.6853C5.52711 4.78412 4.24538 6.3459 3.4885 8.17317C2.73163 10.0004 2.53359 12.0111 2.91945 13.9509C3.3053 15.8907 4.25771 17.6725 5.65623 19.0711C7.05476 20.4696 8.83659 21.422 10.7764 21.8079C12.7162 22.1937 14.7269 21.9957 16.5541 21.2388C18.3814 20.4819 19.9432 19.2002 21.042 17.5557C22.1408 15.9112 22.7273 13.9778 22.7273 12C22.7273 10.6868 22.4686 9.38642 21.9661 8.17317C21.4635 6.95991 20.727 5.85752 19.7984 4.92893C18.8698 4.00035 17.7674 3.26375 16.5541 2.7612C15.3409 2.25866 14.0405 2 12.7273 2V2ZM12.7273 20C11.145 20 9.59833 19.5308 8.28274 18.6518C6.96714 17.7727 5.94176 16.5233 5.33626 15.0615C4.73076 13.5997 4.57234 11.9911 4.88102 10.4393C5.1897 8.88743 5.95162 7.46197 7.07045 6.34315C8.18927 5.22433 9.61473 4.4624 11.1666 4.15372C12.7184 3.84504 14.327 4.00346 15.7888 4.60896C17.2506 5.21447 18.5 6.23984 19.3791 7.55544C20.2581 8.87103 20.7273 10.4177 20.7273 12C20.7273 14.1217 19.8844 16.1566 18.3842 17.6569C16.8839 19.1571 14.849 20 12.7273 20V20Z" />
</svg>
