<svg xmlns="http://www.w3.org/2000/svg" data-name="Layer 1" viewBox="0 0 32 32">
  <path fill="#fdd331" d="M31.37,16c0,1.564-1.945,2.8-2.4,4.214-.475,1.463.355,3.6-.531,4.822s-3.194,1.1-4.424,1.993-1.8,3.118-3.261,3.593c-1.411.458-3.187-.991-4.751-.991s-3.339,1.45-4.751.991c-1.463-.475-2.043-2.707-3.261-3.593s-3.529-.763-4.424-1.993-.056-3.359-.531-4.822C2.575,18.8.63,17.564.63,16s1.945-2.8,2.4-4.214c.475-1.463-.355-3.6.531-4.822s3.194-1.1,4.424-1.993,1.8-3.118,3.261-3.593C12.661.92,14.436,2.37,16,2.37s3.339-1.45,4.751-.991c1.463.475,2.043,2.707,3.261,3.593s3.529.763,4.424,1.993.056,3.359.531,4.822C29.425,13.2,31.37,14.436,31.37,16Z"/>
</svg>