<svg width="24" height="24" viewBox="0 0 24 24" fill="none" xmlns="http://www.w3.org/2000/svg">
<g clip-path="url(#clip0)">
<path d="M23.25 8.25H22.5V4.875C22.5 4.27826 22.2629 3.70597 21.841 3.28401C21.419 2.86205 20.8467 2.625 20.25 2.625H2.25C1.65326 2.625 1.08097 2.86205 0.65901 3.28401C0.237053 3.70597 0 4.27826 0 4.875L0 19.125C0 19.7217 0.237053 20.294 0.65901 20.716C1.08097 21.1379 1.65326 21.375 2.25 21.375H20.25C20.8467 21.375 21.419 21.1379 21.841 20.716C22.2629 20.294 22.5 19.7217 22.5 19.125V15.75H23.25C23.4489 15.75 23.6397 15.671 23.7803 15.5303C23.921 15.3897 24 15.1989 24 15V9C24 8.80109 23.921 8.61032 23.7803 8.46967C23.6397 8.32902 23.4489 8.25 23.25 8.25ZM22.5 14.25H19.875C19.2783 14.25 18.706 14.0129 18.284 13.591C17.8621 13.169 17.625 12.5967 17.625 12C17.625 11.4033 17.8621 10.831 18.284 10.409C18.706 9.98705 19.2783 9.75 19.875 9.75H22.5V14.25Z" />
</g>
<defs>
<clipPath id="clip0">
<rect width="24" height="24" fill="white"/>
</clipPath>
</defs>
</svg>
