<svg width="25" height="24" viewBox="0 0 25 24" fill="none" xmlns="http://www.w3.org/2000/svg">
<path d="M20.4 12.6599C20.2397 12.4774 20.1513 12.2428 20.1513 11.9999C20.1513 11.757 20.2397 11.5224 20.4 11.3399L21.68 9.89989C21.821 9.74256 21.9086 9.5446 21.9302 9.3344C21.9517 9.12421 21.9062 8.91258 21.8 8.72989L19.8 5.2699C19.6949 5.08742 19.5349 4.94277 19.3427 4.85658C19.1506 4.77039 18.9362 4.74705 18.73 4.7899L16.85 5.1699C16.6108 5.21932 16.3617 5.17948 16.1499 5.0579C15.938 4.93631 15.778 4.74138 15.7 4.5099L15.09 2.6799C15.0229 2.48127 14.8951 2.30876 14.7246 2.18674C14.5541 2.06471 14.3496 1.99935 14.14 1.9999H10.14C9.92192 1.98851 9.70612 2.04882 9.52555 2.17161C9.34498 2.2944 9.20957 2.47291 9.13999 2.6799L8.57999 4.5099C8.50199 4.74138 8.34196 4.93631 8.1301 5.0579C7.91824 5.17948 7.6692 5.21932 7.42999 5.1699L5.49999 4.7899C5.30454 4.76228 5.10529 4.79312 4.92734 4.87853C4.74938 4.96395 4.60069 5.10012 4.49999 5.2699L2.49999 8.72989C2.39115 8.91054 2.34221 9.12098 2.36017 9.33112C2.37813 9.54126 2.46207 9.74034 2.59999 9.89989L3.86999 11.3399C4.03031 11.5224 4.11872 11.757 4.11872 11.9999C4.11872 12.2428 4.03031 12.4774 3.86999 12.6599L2.59999 14.0999C2.46207 14.2595 2.37813 14.4585 2.36017 14.6687C2.34221 14.8788 2.39115 15.0892 2.49999 15.2699L4.49999 18.7299C4.60509 18.9124 4.76511 19.057 4.95724 19.1432C5.14937 19.2294 5.36381 19.2527 5.56999 19.2099L7.44999 18.8299C7.6892 18.7805 7.93824 18.8203 8.1501 18.9419C8.36196 19.0635 8.52199 19.2584 8.59999 19.4899L9.20999 21.3199C9.27957 21.5269 9.41498 21.7054 9.59555 21.8282C9.77612 21.951 9.99192 22.0113 10.21 21.9999H14.21C14.4196 22.0004 14.6241 21.9351 14.7946 21.8131C14.9651 21.691 15.0929 21.5185 15.16 21.3199L15.77 19.4899C15.848 19.2584 16.008 19.0635 16.2199 18.9419C16.4317 18.8203 16.6808 18.7805 16.92 18.8299L18.8 19.2099C19.0062 19.2527 19.2206 19.2294 19.4127 19.1432C19.6049 19.057 19.7649 18.9124 19.87 18.7299L21.87 15.2699C21.9762 15.0872 22.0217 14.8756 22.0002 14.6654C21.9786 14.4552 21.891 14.2572 21.75 14.0999L20.4 12.6599ZM18.91 13.9999L19.71 14.8999L18.43 17.1199L17.25 16.8799C16.5298 16.7327 15.7806 16.855 15.1446 17.2237C14.5086 17.5924 14.0301 18.1817 13.8 18.8799L13.42 19.9999H10.86L10.5 18.8599C10.2698 18.1617 9.79137 17.5724 9.15539 17.2037C8.51942 16.835 7.77021 16.7127 7.04999 16.8599L5.86999 17.0999L4.56999 14.8899L5.36999 13.9899C5.86194 13.4399 6.13392 12.7278 6.13392 11.9899C6.13392 11.252 5.86194 10.5399 5.36999 9.98989L4.56999 9.0899L5.84999 6.88989L7.02999 7.1299C7.75021 7.27712 8.49942 7.15478 9.13539 6.78609C9.77137 6.41741 10.2498 5.82805 10.48 5.1299L10.86 3.9999H13.42L13.8 5.13989C14.0301 5.83805 14.5086 6.42741 15.1446 6.79609C15.7806 7.16478 16.5298 7.28712 17.25 7.13989L18.43 6.8999L19.71 9.11989L18.91 10.0199C18.4236 10.5687 18.155 11.2766 18.155 12.0099C18.155 12.7432 18.4236 13.4511 18.91 13.9999ZM12.14 7.9999C11.3489 7.9999 10.5755 8.23449 9.91771 8.67402C9.25991 9.11354 8.74722 9.73826 8.44447 10.4692C8.14172 11.2001 8.06251 12.0043 8.21685 12.7803C8.37119 13.5562 8.75215 14.2689 9.31156 14.8283C9.87097 15.3877 10.5837 15.7687 11.3596 15.923C12.1356 16.0774 12.9398 15.9982 13.6707 15.6954C14.4016 15.3927 15.0263 14.88 15.4659 14.2222C15.9054 13.5644 16.14 12.791 16.14 11.9999C16.14 10.939 15.7186 9.92161 14.9684 9.17147C14.2183 8.42132 13.2009 7.9999 12.14 7.9999ZM12.14 13.9999C11.7444 13.9999 11.3577 13.8826 11.0288 13.6628C10.6999 13.4431 10.4436 13.1307 10.2922 12.7653C10.1409 12.3998 10.1012 11.9977 10.1784 11.6097C10.2556 11.2218 10.4461 10.8654 10.7258 10.5857C11.0055 10.306 11.3618 10.1155 11.7498 10.0383C12.1378 9.96115 12.5399 10.0008 12.9054 10.1521C13.2708 10.3035 13.5832 10.5599 13.8029 10.8888C14.0227 11.2177 14.14 11.6043 14.14 11.9999C14.14 12.5303 13.9293 13.039 13.5542 13.4141C13.1791 13.7892 12.6704 13.9999 12.14 13.9999Z" />
</svg>
