<svg width="24" height="24" viewBox="0 0 24 24" fill="none" xmlns="http://www.w3.org/2000/svg">
<path d="M17.9885 8.04738C18.166 8.21584 18.2694 8.44792 18.2759 8.6926C18.2824 8.93728 18.1915 9.17452 18.0231 9.35215L11.9769 15.7292C11.7611 15.9564 11.5013 16.1374 11.2134 16.2612C10.9255 16.385 10.6154 16.4489 10.302 16.4492H10.2466C9.92394 16.441 9.60657 16.3653 9.31492 16.2269C9.02327 16.0886 8.76381 15.8908 8.55323 15.6462L5.94739 12.6198C5.78759 12.4343 5.70802 12.1929 5.7262 11.9488C5.74437 11.7046 5.8588 11.4776 6.04431 11.3178C6.22982 11.158 6.47121 11.0785 6.71538 11.0967C6.95956 11.1148 7.18651 11.2293 7.34631 11.4148L9.95216 14.442C9.99415 14.4911 10.046 14.5307 10.1044 14.5583C10.1628 14.5859 10.2264 14.6008 10.2909 14.6022C10.3557 14.6058 10.4205 14.5947 10.4804 14.5699C10.5403 14.545 10.5939 14.507 10.6371 14.4586L16.6832 8.08154C16.7667 7.99357 16.8666 7.92291 16.9774 7.87358C17.0882 7.82426 17.2076 7.79724 17.3288 7.79407C17.45 7.79089 17.5706 7.81163 17.6838 7.8551C17.797 7.89856 17.9005 7.9639 17.9885 8.04738ZM24 12C24 14.3734 23.2962 16.6934 21.9776 18.6668C20.6591 20.6402 18.7849 22.1783 16.5922 23.0865C14.3995 23.9948 11.9867 24.2324 9.65892 23.7694C7.33115 23.3064 5.19295 22.1635 3.51472 20.4853C1.83649 18.807 0.693605 16.6689 0.230582 14.3411C-0.232441 12.0133 0.00519941 9.60051 0.913451 7.4078C1.8217 5.21508 3.35977 3.34094 5.33316 2.02236C7.30655 0.703788 9.62663 0 12 0C15.1815 0.00366459 18.2316 1.26912 20.4812 3.51877C22.7309 5.76841 23.9963 8.81853 24 12ZM22.1538 12C22.1516 9.99534 21.557 8.03606 20.4446 6.36834C19.3322 4.70062 17.7518 3.39885 15.9018 2.62661C15.0796 2.41451 14.2338 2.30735 13.3846 2.30769C11.0359 2.30974 8.76044 3.126 6.94596 4.61742C5.13148 6.10885 3.89016 8.18319 3.43344 10.4871C2.97673 12.7911 3.33287 15.1821 4.44119 17.2529C5.54952 19.3237 7.34148 20.9463 9.51185 21.8441C11.01 22.2228 12.5748 22.2545 14.0871 21.9369C15.5993 21.6193 17.0192 20.9607 18.2384 20.0113C19.4576 19.0619 20.4441 17.8468 21.1226 16.4585C21.8011 15.0701 22.1538 13.5453 22.1538 12V12Z" />
</svg>
