<svg width="32" height="32" viewBox="0 0 32 32" fill="none" xmlns="http://www.w3.org/2000/svg">
<path fill-rule="evenodd" clip-rule="evenodd" d="M6.98696 15.3184C5.44345 15.3184 4.19219 16.572 4.19219 18.1184V27.2184C4.19219 30.0184 4.19219 30.0184 5.7357 30.0184H27.0601C28.6036 30.0184 28.6464 30.0184 28.6464 27.2184V18.1184C28.6464 16.572 27.3952 15.3184 25.8517 15.3184H6.98696ZM7.68565 16.0184C6.14215 16.0184 4.89088 17.272 4.89088 18.8184V26.5184C4.89088 28.0648 6.14215 29.3184 7.68565 29.3184H25.153C26.6965 29.3184 27.9477 28.0648 27.9477 26.5184V18.8184C27.9477 17.272 26.6965 16.0184 25.153 16.0184H7.68565Z" fill="black"/>
<path d="M14.6726 3.03762C16.1951 1.42554 16.1951 1.42554 17.7176 3.03762L30.5035 16.972C31.7679 18.3108 32.8615 20.5154 31.0219 20.5154H0.978105C-0.861506 20.5154 0.232093 18.3108 1.49646 16.972L14.6726 3.03762Z" fill="black"/>
<path d="M13.9739 23.205C13.9739 22.8184 13.9739 22.8184 14.6726 22.8184H18.3641C18.8647 22.8184 18.8647 22.8184 18.8647 23.5184V29.3184C18.8647 29.705 18.5519 30.0184 18.166 30.0184H14.6726C14.2867 30.0184 13.9739 29.705 13.9739 29.3184V23.205Z" fill="black"/>
</svg>
